# xmcd CD database file
#
# Track frame offsets:
#	150
#	17777
#	33962
#	66237
#	86007
#	113157
#	133600
#	156082
#	168280
#	187275
#
# Disc length: 2723 seconds
#
# Revision: 0
# Processed by: cddbd v1.5.2PL0 Copyright (c) Steve Scherf et al.
# Submitted via: CDex 1.70beta2
#
DISCID=830aa10a
DTITLE=Chris Connor With Hank Jones Trio - Angel Eyes
DYEAR=1900
DGENRE=Jazz
TTITLE0=Unforgettable
TTITLE1=It Might As Well Be Spring
TTITLE2=Angel Eyes
TTITLE3=You Make Me Fell So Young
TTITLE4=The Nearness Of You
TTITLE5=I Get A Kick Out Of You
TTITLE6=All Alone - What'll I Do
TTITLE7=This Can't Be Love
TTITLE8=That Old Devil Called Love
TTITLE9=Lover
EXTD=
EXTT0=
EXTT1=
EXTT2=
EXTT3=
EXTT4=
EXTT5=
EXTT6=
EXTT7=
EXTT8=
EXTT9=
PLAYORDER=
